<svg width="150" height="85" viewBox="0 0 150 85" fill="none" xmlns="http://www.w3.org/2000/svg">
<ellipse cx="93.75" cy="40.4163" rx="56.25" ry="39.5833" fill="#72A503"/>
<path d="M10.656 47.232H22.272V54H1.488V47.472L12.624 33.984H1.584V27.216H22.032V33.744L10.656 47.232ZM30.9165 24.432C29.4765 24.432 28.2925 24.016 27.3645 23.184C26.4685 22.32 26.0205 21.264 26.0205 20.016C26.0205 18.736 26.4685 17.68 27.3645 16.848C28.2925 15.984 29.4765 15.552 30.9165 15.552C32.3245 15.552 33.4765 15.984 34.3725 16.848C35.3005 17.68 35.7645 18.736 35.7645 20.016C35.7645 21.264 35.3005 22.32 34.3725 23.184C33.4765 24.016 32.3245 24.432 30.9165 24.432ZM34.9965 27.216V54H26.7885V27.216H34.9965ZM75.1208 26.928C78.4488 26.928 81.0888 27.936 83.0408 29.952C85.0248 31.968 86.0168 34.768 86.0168 38.352V54H77.8568V39.456C77.8568 37.728 77.3928 36.4 76.4648 35.472C75.5688 34.512 74.3208 34.032 72.7208 34.032C71.1208 34.032 69.8568 34.512 68.9288 35.472C68.0328 36.4 67.5848 37.728 67.5848 39.456V54H59.4248V39.456C59.4248 37.728 58.9608 36.4 58.0328 35.472C57.1368 34.512 55.8888 34.032 54.2888 34.032C52.6888 34.032 51.4248 34.512 50.4968 35.472C49.6008 36.4 49.1528 37.728 49.1528 39.456V54H40.9448V27.216H49.1528V30.576C49.9848 29.456 51.0728 28.576 52.4168 27.936C53.7608 27.264 55.2808 26.928 56.9768 26.928C58.9928 26.928 60.7848 27.36 62.3528 28.224C63.9528 29.088 65.2008 30.32 66.0968 31.92C67.0248 30.448 68.2888 29.248 69.8888 28.32C71.4888 27.392 73.2328 26.928 75.1208 26.928ZM90.1253 40.56C90.1253 37.808 90.6373 35.392 91.6613 33.312C92.7173 31.232 94.1413 29.632 95.9333 28.512C97.7253 27.392 99.7253 26.832 101.933 26.832C103.821 26.832 105.469 27.216 106.877 27.984C108.317 28.752 109.421 29.76 110.189 31.008V27.216H118.397V54H110.189V50.208C109.389 51.456 108.269 52.464 106.829 53.232C105.421 54 103.773 54.384 101.885 54.384C99.7093 54.384 97.7253 53.824 95.9333 52.704C94.1413 51.552 92.7173 49.936 91.6613 47.856C90.6373 45.744 90.1253 43.312 90.1253 40.56ZM110.189 40.608C110.189 38.56 109.613 36.944 108.461 35.76C107.341 34.576 105.965 33.984 104.333 33.984C102.701 33.984 101.309 34.576 100.157 35.76C99.0373 36.912 98.4773 38.512 98.4773 40.56C98.4773 42.608 99.0373 44.24 100.157 45.456C101.309 46.64 102.701 47.232 104.333 47.232C105.965 47.232 107.341 46.64 108.461 45.456C109.613 44.272 110.189 42.656 110.189 40.608Z" fill="black"/>
</svg>
